<?xml version="1.0" encoding="utf-8"?>
<!-- Generator: Adobe Illustrator 28.1.0, SVG Export Plug-In . SVG Version: 6.00 Build 0)  -->
<svg version="1.1" id="auctioneer_logo2" xmlns="http://www.w3.org/2000/svg" xmlns:xlink="http://www.w3.org/1999/xlink" x="0px"
	 y="0px" viewBox="0 0 300 300" style="enable-background:new 0 0 300 300;" xml:space="preserve">
<style type="text/css">
	.st0{fill-rule:evenodd;clip-rule:evenodd;}
</style>
<path class="st0" d="M1.6,22.2c2.4,7.9,8.6,8.7,17.6,6.4c-0.8,2.4-2.4,4-3.2,6.4c22.6,18.5,65.3,16.9,99.3,24
	c-1.6,8.1-5,15.2-1.6,24c-2.8-1.5-2.9-5.6-4.8-8C68.8,65.5,31.7,52.9,1.6,33.4C1.6,33.4,1.6,22.2,1.6,22.2z"/>
<path class="st0" d="M171.4,75.1c-11.9-6.3-34.7-10.1-41.7-16C147.1,54.7,164.9,63.3,171.4,75.1z"/>
<path class="st0" d="M121.8,168c-10.5,6.1-26.7,6.4-32,17.6c8.8,16.7,29.1,34,52.9,44.9c32.1,14.7,73.8,28.6,104.1,11.2
	c-31.2,33-114.4,0.2-142.6-28.8c-6.1-6.2-9.3-14.4-14.4-19.2c-8.2,11.9-17.5,18.8-14.4,35.2c4.8,25.4,71.5,69.7,100.9,43.2
	c15,1.3,40.7,3.1,56.1,0c6.9-1.4,11.6-8,14.4-4.8c-5,8.3-7.9,18.8-12.8,27.2c-33.3,11.2-78,4.4-113.7-12.8
	c-22.5-10.8-49.9-31.3-52.9-49.7c-3.2-19.5,12.1-30.8,16-49.7C92.8,174.2,102.4,166.2,121.8,168L121.8,168z"/>
<path class="st0" d="M136.2,171.2c40.8,4.5,93.2,6.7,92.9-35.2c-19.1-14.5-45.5-21.8-67.3-33.6c-14.6-2.3-43.3-3.4-44.9-24
	c15.4,9.3,40.6-2.7,54.5,0c-1.4,6.6-5,11-6.4,17.6c22.9,10.3,61.6,18.1,88.1,6.4c-22-14.8-51.1-22.6-73.7-36.8
	c28.1-3.2,78.9,7.7,89.7-20.8c1.1-9.6-1.5-15.6-1.6-24c-13.4-8.7-43.3-25.2-60.9-9.6c2.5-29.8,87.6,8.5,91.3,27.2
	c3.9,19.9-20,23.7-27.2,40c1,7.5-2.1,19.2,1.6,24c-1.5,2.8-5.6,2.9-8,4.8c4.6,11.9-4.7,28.1-17.6,32c-1.7,6,4,4.6,3.2,9.6
	c-22.8,7.7-26,34.9-28.8,62.5c-35.6,4.4-118.3-27.7-78.5-62.5C144.5,153.9,134.7,161.2,136.2,171.2L136.2,171.2z"/>
<path class="st0" d="M19.2,25.4c36.4-4.9,58.5,18.4,86.5,27.2C80,46.9,53.5,27.9,19.2,25.4z"/>
</svg>
