<?xml version="1.0" encoding="UTF-8"?>
<!DOCTYPE svg PUBLIC "-//W3C//DTD SVG 1.1//EN" "http://www.w3.org/Graphics/SVG/1.1/DTD/svg11.dtd">
<svg xmlns="http://www.w3.org/2000/svg" version="1.1" width="76px" height="60px" style="shape-rendering:geometricPrecision; text-rendering:geometricPrecision; image-rendering:optimizeQuality; fill-rule:evenodd; clip-rule:evenodd" xmlns:xlink="http://www.w3.org/1999/xlink">
<g><path style="opacity:0.687" fill="#977e52" d="M 47.5,3.5 C 54.6698,2.58894 60.0032,5.08894 63.5,11C 63.183,13.3279 62.0163,15.1613 60,16.5C 59.6543,19.5755 58.9876,22.5755 58,25.5C 53.3919,29.3828 50.8919,34.3828 50.5,40.5C 43.2079,41.4209 37.8745,38.7542 34.5,32.5C 34.7028,30.7923 35.5362,29.459 37,28.5C 37.6838,29.7839 37.5171,30.9505 36.5,32C 38.433,32.2511 40.2663,32.7511 42,33.5C 46.1807,33.3291 49.3474,31.4957 51.5,28C 46.6408,24.5701 41.3074,22.2368 35.5,21C 30.1349,17.1419 24.1349,14.4752 17.5,13C 14.5972,12.0444 13.0972,10.211 13,7.5C 21.7313,6.4475 28.5646,9.61416 33.5,17C 35.403,17.7737 37.0696,17.4404 38.5,16C 37.2068,15.51 35.8734,15.3433 34.5,15.5C 34.281,14.325 34.6143,13.325 35.5,12.5C 37.8111,13.2135 39.9777,14.2135 42,15.5C 46.83,14.8461 51.6633,14.0127 56.5,13C 58.6396,7.78934 56.8063,5.28934 51,5.5C 49.5643,5.55887 48.231,5.89221 47,6.5C 46.5304,5.42317 46.6971,4.42317 47.5,3.5 Z M 16.5,9.5 C 19.2282,9.17057 21.5615,9.83724 23.5,11.5C 20.7718,11.8294 18.4385,11.1628 16.5,9.5 Z M 42.5,16.5 C 46.6582,17.4983 50.6582,18.9983 54.5,21C 49.9595,21.9466 45.6262,21.4466 41.5,19.5C 42.1272,18.5832 42.4606,17.5832 42.5,16.5 Z"/></g>
<g><path style="opacity:0.64" fill="#977e52" d="M 30.5,31.5 C 31.675,31.281 32.675,31.6143 33.5,32.5C 32.0642,33.9337 30.3975,35.1004 28.5,36C 36.0446,44.1227 45.0446,47.2893 55.5,45.5C 52.2904,48.2224 48.6237,49.0557 44.5,48C 37.7506,46.7462 32.0839,43.5795 27.5,38.5C 25.0617,40.6561 24.895,42.9894 27,45.5C 30.0867,48.5437 33.7533,50.5437 38,51.5C 43.825,51.0961 49.4917,50.0961 55,48.5C 54.9211,50.8463 54.0877,53.013 52.5,55C 41.0482,57.405 31.5482,54.2384 24,45.5C 23.2092,39.417 25.3759,34.7503 30.5,31.5 Z"/></g>
</svg>
