<?xml version="1.0" encoding="utf-8"?>
<!-- Generator: Adobe Illustrator 28.1.0, SVG Export Plug-In . SVG Version: 6.00 Build 0)  -->
<svg version="1.1" id="famous_logo2" xmlns="http://www.w3.org/2000/svg" xmlns:xlink="http://www.w3.org/1999/xlink" x="0px"
	 y="0px" viewBox="0 0 300 300" style="enable-background:new 0 0 300 300;" xml:space="preserve">
<path d="M195,73c-65.8,0-115.8,49-129.9,128.1c-17.3,8.3-30.2,11.6-44,11.6c-6.8,0-11.3-0.5-21.1-2c10.8,4,16.3,5,26.1,5
	c18.6,0,42.5-6.3,65.6-17.3c4.4-2.1,8.4-4.2,12.3-6.4c13.2,1.3,26.8,2.2,39.6-2c0.5-0.2,2.1-0.6,1.9-1.4c-0.2-0.8-1.9-0.4-2.4-0.3
	c-1.2,0.4-2.4,0.7-3.5,1l-29.6,1c-0.9-0.1-1.8-0.2-2.6-0.2c11.8-6.8,23.9-15.5,44.6-31.6c10.2-7.8,18.9-14.3,26.6-19.8
	c8.9-1.4,17.9-1.4,26.8-1.4c2.5,0,3.2-3.3,0.3-3.3c-7.1,0-14.3,0-21.4,0.7c25.9-17.7,39.3-21.7,59.4-21.7s33.2,4.5,48.7,16.3
	c-4.8-1.5-7.3-1.8-11.3-1.8c-21.1,0-44,13.3-68.6,40c-40.9,44-63.1,54.8-91.2,54.8c-14.3,0-31.7-4-45.2-10.1
	c14.1,9.1,34.7,14.8,53.5,14.8c30.4,0,53.8-12.6,79.9-42.7c18.3-21.4,24.9-30.4,42-42.2c9.8-6.8,20.9-10.6,30.4-10.6
	c7.3,0,12.6,1.8,18.1,5.8C291.2,100.1,244.5,73,195,73L195,73z M239.9,107.9c-12.1,0-25.8,2.6-37.8,7.1c0.1-0.2,0.1-0.4,0.2-0.7
	l13.8-13.8c0.2-0.1,0.4-0.1,0.7-0.1c0.6-0.1,2.3-0.4,2.5-1.2c0.2-0.8-1.4-0.6-1.7-0.6c-4.9,0.8-9.6,2.8-13.4,6.1
	c-3.5,3.1-5.6,7.4-6.4,12c-1.1,0.5-2.2,0.9-3.3,1.5c-15.1,7.4-25.9,14.1-62.3,40.1l10.2-24.3c2.6-4.4,5.2-8.7,7.5-13.2
	c0.3-0.7-3.6-0.4-4.2,0.7c-6.7,13.3-16.6,25.4-18.5,40.3c-32.2,22.9-43.3,29.9-58.1,37c6-26.6,15.3-47,30.2-65.3
	c26.1-32.4,64.8-51.3,104-51.3s75.1,17.8,88.7,42.5C276.6,113.4,259.8,107.9,239.9,107.9L239.9,107.9z"/>
</svg>
