<?xml version="1.0" encoding="UTF-8"?>
<!DOCTYPE svg PUBLIC "-//W3C//DTD SVG 1.1//EN" "http://www.w3.org/Graphics/SVG/1.1/DTD/svg11.dtd">
<svg xmlns="http://www.w3.org/2000/svg" version="1.1" width="76px" height="60px" style="shape-rendering:geometricPrecision; text-rendering:geometricPrecision; image-rendering:optimizeQuality; fill-rule:evenodd; clip-rule:evenodd" xmlns:xlink="http://www.w3.org/1999/xlink">
<g><path style="opacity:0.573" fill="#977e52" d="M 75.5,22.5 C 75.5,24.1667 75.5,25.8333 75.5,27.5C 71.9343,25.1926 68.2677,25.0259 64.5,27C 57.7279,32.8604 51.3946,39.1937 45.5,46C 37.0401,50.317 28.3734,50.6503 19.5,47C 18.8742,46.2496 18.3742,45.4162 18,44.5C 12.0156,47.0821 5.84893,47.7488 -0.5,46.5C -0.5,45.5 -0.5,44.5 -0.5,43.5C 4.59882,43.8254 9.59882,43.3254 14.5,42C 20.3376,15.4652 36.3376,5.46521 62.5,12C 67.6449,14.6599 71.9782,18.1599 75.5,22.5 Z M 63.5,17.5 C 60.5,17.5 57.5,17.5 54.5,17.5C 54.1575,15.7748 53.1575,15.2748 51.5,16C 46.3177,20.4168 40.9844,24.5834 35.5,28.5C 36.2122,26.0721 37.2122,23.7388 38.5,21.5C 37.9984,20.479 37.3317,20.3123 36.5,21C 33.9007,24.8682 31.5673,28.8682 29.5,33C 26.5,34.8333 23.5,36.6667 20.5,38.5C 24.1643,23.2089 34.1643,14.8755 50.5,13.5C 55.2601,13.8402 59.5934,15.1736 63.5,17.5 Z M 54.5,21.5 C 58.5138,21.3345 62.5138,21.5012 66.5,22C 62.3587,23.5716 58.692,25.9049 55.5,29C 50.4682,34.3665 45.1349,39.3665 39.5,44C 33.1855,47.1755 26.8521,47.1755 20.5,44C 21.8333,43.3333 23.1667,42.6667 24.5,42C 28.2222,41.7618 31.8889,41.2618 35.5,40.5C 36.2868,39.7579 36.9535,38.9246 37.5,38C 35.5568,38.3052 33.5568,38.3052 31.5,38C 35.1667,35 38.8333,32 42.5,29C 45.8333,27.8333 49.1667,26.6667 52.5,25.5C 51.624,24.7492 50.624,24.2492 49.5,24C 51.3146,23.2432 52.9812,22.4098 54.5,21.5 Z"/></g>
</svg>
