<?xml version="1.0" encoding="UTF-8"?>
<!DOCTYPE svg PUBLIC "-//W3C//DTD SVG 1.1//EN" "http://www.w3.org/Graphics/SVG/1.1/DTD/svg11.dtd">
<svg xmlns="http://www.w3.org/2000/svg" version="1.1" width="76px" height="60px" style="shape-rendering:geometricPrecision; text-rendering:geometricPrecision; image-rendering:optimizeQuality; fill-rule:evenodd; clip-rule:evenodd" xmlns:xlink="http://www.w3.org/1999/xlink">
<g><path style="opacity:0.654" fill="#977e52" d="M 56.5,4.5 C 57.8734,4.34332 59.2068,4.50999 60.5,5C 57.8088,11.1816 53.4755,15.8483 47.5,19C 46.1667,19.6667 44.8333,19.6667 43.5,19C 46.9867,13.3499 51.32,8.51654 56.5,4.5 Z"/></g>
<g><path style="opacity:0.859" fill="#977e52" d="M 15.5,7.5 C 19.4629,7.08892 23.1295,7.92225 26.5,10C 39.2152,20.9476 36.8818,24.9476 19.5,22C 15.7706,19.6538 12.7706,16.6538 10.5,13C 11.6793,10.6571 13.3459,8.82382 15.5,7.5 Z"/></g>
<g><path style="opacity:0.505" fill="#977e52" d="M 68.5,18.5 C 70.1765,19.1834 70.8432,20.5168 70.5,22.5C 69.5,22.5 68.5,22.5 67.5,22.5C 67.4326,21.0413 67.7659,19.7079 68.5,18.5 Z"/></g>
<g><path style="opacity:0.589" fill="#977e52" d="M 62.5,33.5 C 62.9193,36.3245 61.9193,38.4912 59.5,40C 58.5509,40.6172 57.7175,40.4506 57,39.5C 56.1866,43.5019 53.6866,45.5019 49.5,45.5C 49.7373,44.209 49.404,43.209 48.5,42.5C 48.5774,41.2502 49.244,40.4169 50.5,40C 49.4734,39.4867 48.4734,38.9867 47.5,38.5C 47.7678,36.901 47.4345,35.5676 46.5,34.5C 48.1,32.5417 50.2666,31.2084 53,30.5C 53.9454,30.9054 54.6121,31.572 55,32.5C 55.3333,31.1667 55.6667,29.8333 56,28.5C 59.2615,26.9074 62.2615,24.9074 65,22.5C 69.6195,27.2903 68.7862,30.9569 62.5,33.5 Z M 62.5,33.5 C 60.3441,33.1282 60.3441,32.1282 62.5,30.5C 63.087,31.2334 63.087,32.2334 62.5,33.5 Z M 55.5,33.5 C 57.7652,34.9402 57.9319,36.6068 56,38.5C 55.5065,36.8659 55.3398,35.1992 55.5,33.5 Z"/></g>
<g><path style="opacity:0.287" fill="#977e52" d="M 10.5,37.5 C 8.74458,36.9278 7.07791,36.0945 5.5,35C 5.83333,34.6667 6.16667,34.3333 6.5,34C 5.16667,33.3333 4.16667,32.3333 3.5,31C 5.54413,30.9519 7.54413,31.4519 9.5,32.5C 9.97343,34.247 10.3068,35.9137 10.5,37.5 Z"/></g>
<g><path style="opacity:0.478" fill="#977e52" d="M 16.5,41.5 C 13.7079,41.3775 11.7079,40.0442 10.5,37.5C 11.552,37.6495 12.552,37.4828 13.5,37C 12.0267,36.2904 11.3601,35.1238 11.5,33.5C 13.1667,33.5 14.8333,33.5 16.5,33.5C 16.7733,35.451 16.1066,36.951 14.5,38C 15.305,39.1127 15.9717,40.2794 16.5,41.5 Z"/></g>
<g><path style="opacity:0.614" fill="#977e52" d="M 46.5,34.5 C 46.2322,36.099 46.5655,37.4324 47.5,38.5C 46.9002,39.8999 45.9002,40.8999 44.5,41.5C 42.1104,41.3152 41.1104,39.9818 41.5,37.5C 41.9293,34.1244 43.596,33.1244 46.5,34.5 Z"/></g>
<g><path style="opacity:0.625" fill="#977e52" d="M 16.5,41.5 C 20.6337,40.1927 20.967,39.1927 17.5,38.5C 17.5,37.1667 17.5,35.8333 17.5,34.5C 19.5,34.5 21.5,34.5 23.5,34.5C 23.3505,35.552 23.5172,36.552 24,37.5C 29.4778,36.2063 34.9778,35.2063 40.5,34.5C 40.5,36.8333 40.5,39.1667 40.5,41.5C 38.1432,41.3367 35.8098,41.5034 33.5,42C 36.146,42.4974 38.8127,42.6641 41.5,42.5C 41.5,44.1667 41.5,45.8333 41.5,47.5C 37.5,47.5 33.5,47.5 29.5,47.5C 29.3364,41.8333 29.0031,41.5 28.5,46.5C 25.7615,47.0352 23.9282,46.0352 23,43.5C 18.3124,47.6886 13.4791,51.6886 8.5,55.5C 6.60395,56.4656 4.60395,56.7989 2.5,56.5C 2.5,55.1667 2.5,53.8333 2.5,52.5C 3.87344,52.6567 5.20677,52.49 6.5,52C 5.54943,51.2825 5.38277,50.4491 6,49.5C 9.65836,46.9343 13.1584,44.2676 16.5,41.5 Z"/></g>
<g><path style="opacity:0.563" fill="#977e52" d="M 44.5,41.5 C 45.9587,41.4326 47.2921,41.7659 48.5,42.5C 48.5,43.8333 48.5,45.1667 48.5,46.5C 42.5776,48.2518 41.2443,46.5851 44.5,41.5 Z"/></g>
</svg>
