<?xml version="1.0" encoding="utf-8"?>
<!-- Generator: Adobe Illustrator 28.1.0, SVG Export Plug-In . SVG Version: 6.00 Build 0)  -->
<svg version="1.1" id="monster_logo2" xmlns="http://www.w3.org/2000/svg" xmlns:xlink="http://www.w3.org/1999/xlink" x="0px"
	 y="0px" viewBox="0 0 300 300" style="enable-background:new 0 0 300 300;" xml:space="preserve">
<style type="text/css">
	.st0{fill-rule:evenodd;clip-rule:evenodd;}
</style>
<path d="M194.3,93.9c3.1-5.7,28-43.7,62.8-56.4c0,0-0.8,17-29.1,40.5C199.7,101.6,191.1,99.6,194.3,93.9L194.3,93.9L194.3,93.9z"/>
<path d="M149.6,99.7c0,0-41.7-63.6-84.8-43.4c-43.2,20.2,26,54.1,26,54.1s36.7,2.2,49.9-2.5C153.9,103.3,149.6,99.7,149.6,99.7
	L149.6,99.7L149.6,99.7z"/>
<path d="M297.4,113.9l-0.3,0.5l-2.9-10.1c-2.7,2.5-6,5.4-9.9,8.6l4.9,13.8l-0.1,0.1c-4.7,6.5-9.9,12.8-15.5,18.5l-0.3,0.3l-6.5-19.3
	c-2.6,1.8-5.3,3.6-8.1,5.5v0c2,4.3,4,11.6,6,21.8l0,0.1l-0.1,0.1c-5.2,4.5-10.8,8.7-16.5,12.4l-0.3,0.2l-5.3-25
	c-3,1.7-6.1,3.3-9.3,4.9l4.7,25.9l-0.2,0.1c-8.3,4.4-17.1,8-26.2,10.8l-0.2,0.1l-0.1-0.2l-7-24.6c-2.3,0.8-4.6,1.5-6.9,2.2l0,0
	l5.7,24.9l-0.2,0.1c-5.4,1.3-11.1,2.3-16.9,3l-0.2,0l-3.9-24.1c-2.9,0.6-5.8,1.1-8.8,1.6l2.4,23.4l-0.3,0
	c-5.7,0.4-11.4,0.6-17.1,0.6h-0.2l0-0.2l-0.8-22.1c-2.2,0.2-4.5,0.3-6.8,0.4c1.4,5,2.2,12.2,2.4,21.6v0.3h-0.3
	c-6.4-0.1-12.8-0.5-19.1-1.1l-0.2,0l-0.7-20.6c-2.2,0-4.4-0.1-6.7-0.2c0.2,5.3,0,11.9-0.4,19.6l0,0.3l-0.3,0
	c-5.1-0.6-10.2-1.4-15.3-2.4l-0.2-0.1l0-0.2l2.9-18c-4.3-0.3-8.6-0.8-12.8-1.2l-1.9,17l-0.3-0.1c-6-1.4-12.1-3.1-18-4.9l-0.2-0.1
	l2.5-14.4c-4-0.6-7.9-1.3-11.6-1.9l-1.9,12.6l-0.3-0.1c-4.8-1.8-9.6-3.6-14.1-5.6l-0.2-0.1l1.5-9.8c-2.9-0.6-5.7-1.2-8.3-1.8
	l-2.1,7.5l-0.3-0.1c-8.8-4.3-15-8.1-18.3-10.2c0.4,0.6,0.9,1.2,1.4,1.8l0.2-0.2l15.2,14.6l-0.4,1.4c2.8,2.5,5.9,5.1,9.3,7.7l0.7-4.3
	l0.3,0.1c4.5,1.6,9.4,3.1,14.3,4.5l0.2,0.1l-1.4,9.4c11,6.8,24.3,13.1,40,17.8l2.8-17.7l0.3,0.1c5.1,0.9,10.3,1.8,15.6,2.6l0.2,0
	l0,0.2c-0.4,5.9-1,12.2-1.7,19l0,0c3.5,0.7,7,1.2,10.7,1.7l-0.7-19.8l0.3,0c6.2,0.8,12.6,1.6,19,2.2l0.2,0v0.2
	c0,5.6-0.3,11.9-0.7,18.7c2.2,0.1,4.5,0.1,6.8,0.1l-0.7-18.6l0.3,0c6,0.6,12,1,17.7,1.4h0.2l0,0.2l1.7,16.1
	c3.7-0.3,7.6-0.7,11.4-1.2c0,0,0.1,0,0.1,0l-2.4-15.2l0.2-0.1c5.9-1.6,11.6-3.4,17-5.3l0.3-0.1l3.9,16.9c3.3-0.9,6.5-1.9,9.5-3
	l-4.9-17l0.2-0.1c8.9-3.5,17.5-7.5,25.3-11.8l0.3-0.2l3.2,17.4c3.6-2.3,7.1-4.7,10.3-7.3l0-0.1l-3.4-16l0.1-0.1
	c5.8-3.7,11.3-7.8,16.4-12l0.4-0.3l0.1,0.4c0.7,4.1,1.4,8.6,2,13.3c3.8-4.3,7.2-8.7,10.2-13.2l-3.1-9.2l0.1-0.1
	c5.9-6,11-12.3,15.3-18.9l0.3-0.4l1.2,3.3c4.1-9.5,6.7-18.2,8.3-24.8C299.2,110.6,298.3,112.2,297.4,113.9L297.4,113.9z"/>
<path d="M71.6,194c0,0,7.4-12.3,19.6-6.1c12.3,6.1,0,14.3,0,14.3l-63.8,51.6c0,0-14.3-13.5-23.7-11.5L71.6,194L71.6,194L71.6,194z"
	/>
<path class="st0" d="M3.7,247.9c-9.4,4.1,0.8,16.4,12.3,14.3C27.4,260.2,13.1,243.8,3.7,247.9L3.7,247.9L3.7,247.9z"/>
</svg>
